<svg width="200" height="191" xmlns="http://www.w3.org/2000/svg">
 <!-- Generator: Sketch 57.1 (83088) - https://sketch.com -->

 <title>logo/default</title>
 <desc>Created with Sketch.</desc>
 <g>
  <title>Layer 1</title>
  <g fill-rule="evenodd" fill="none" id="logo/default">
   <path fill="#ffffff" id="Combined-Shape" d="m107.15688,163.4957c5.39277,0 7.04141,1.49015 7.04141,4.60912l0,4.90762l-5.97837,0l0,-3.51384c0,-0.82263 -0.54328,-1.15404 -1.53576,-1.15404c-1.0889,0 -1.64863,0.33141 -1.64863,1.15404l0,15.51025c0,0.83204 0.55973,1.17519 1.61101,1.17519c1.0301,0 1.57338,-0.34315 1.57338,-1.17519l0,-4.22601l5.97837,0l0,3.97922c0,4.75954 -1.82738,6.23794 -7.04141,6.23794l-2.29304,0c-4.57668,0 -6.22767,-2.27283 -6.22767,-5.75141l0,-15.20705c0,-4.29887 1.65099,-6.54584 6.22767,-6.54584l2.29304,0zm16.74487,0.31284l0,26.88849l-6.18534,0l0,-26.88849l6.18534,0zm-52.44368,0l0,26.88849l-6.16417,0l0,-26.88849l6.16417,0zm-39.33687,-0.00094l4.06397,26.88849l-6.27941,0l-0.77846,-6.45888l-4.02635,0l-0.76905,6.45888l-6.27941,0l4.05692,-26.88849l10.01179,0zm19.16914,0l2.46473,23.6426l0.07996,0l2.4365,-23.6426l6.31705,0l-3.55363,26.88849l-10.49862,0l-3.56539,-26.88849l6.3194,0zm-43.28232,0c5.78082,0 7.59644,1.26921 7.59644,10.12079l0,6.70097c0,8.85393 -1.81562,10.06673 -7.59644,10.06673l-8.00802,0l0,-26.88849l8.00802,0zm77.16081,0.00305l4.52023,20.95376l0.09408,-0.06346l-0.44685,-20.8903l5.72673,0l0,26.88615l-9.00755,0l-4.49437,-20.94435l-0.06585,0l0.36454,20.94435l-5.6891,0l0,-26.88615l8.99814,0zm-77.37013,4.60137l-1.63923,0l0,17.47282l1.63923,0c1.33349,0 1.62747,-0.6158 1.62747,-2.60894l0,-12.26905c0,-1.99783 -0.29398,-2.59483 -1.62747,-2.59483zm19.346,-0.90491l-0.07761,0l-1.43933,12.11863l2.98214,0l-1.4652,-12.11863zm113.97863,-36.72559c5.1764,0 7.97274,1.15874 7.97274,5.53282l0,16.42925c0,4.37878 -2.79634,5.55633 -7.97274,5.55633c-5.1811,0 -7.9939,-1.17755 -7.9939,-5.55633l0,-16.42925c0,-4.37408 2.8128,-5.53282 7.9939,-5.53282zm-101.51693,0c5.14112,0 7.97038,1.15874 7.97038,5.53282l0,16.42925c0,4.37878 -2.82926,5.55633 -7.97038,5.55633c-5.16935,0 -8.01272,-1.17755 -8.01272,-5.55633l0,-16.42925c0,-4.37408 2.84337,-5.53282 8.01272,-5.53282zm61.83833,0.29944c6.61573,0 8.47368,1.38438 8.47368,6.44713l0,3.21063c0,4.08499 -1.6016,5.02044 -4.20979,5.45997l0,0.06816c2.74695,0.6158 4.20979,1.08588 4.20979,4.39523l0,7.32618l-6.17358,0l0,-7.70929c0,-1.10469 -0.61853,-1.58417 -2.69285,-1.58417l-1.0889,0l0,9.29346l-6.14536,0l0,-26.9073l7.62701,0zm20.57625,0c5.7479,0 7.58469,1.26216 7.58469,10.12314l0,6.70802c0,8.84218 -1.83679,10.07614 -7.58469,10.07614l-8.01977,0l0,-26.9073l8.01977,0zm-115.86151,0l0,22.05844l5.98308,0l0,4.84886l-12.14255,0l0,-26.9073l6.15947,0zm21.65974,0l0,4.83476l-5.67264,0l0,5.91123l5.25401,0l0,4.59737l-5.25401,0l0,6.71508l6.12184,0l0,4.84886l-12.30953,0l0,-26.9073l11.86033,0zm59.15983,0l4.04516,26.9073l-6.27235,0l-0.79022,-6.47534l-4.00283,0l-0.77376,6.47534l-6.28647,0l4.03811,-26.9073l10.04236,0zm-27.03511,0.00094l4.532,20.96786l0.0682,-0.07992l-0.42803,-20.88794l5.72908,0l0,26.90495l-8.99814,0l-4.50848,-20.96551l-0.07761,0l0.3763,20.96551l-5.6844,0l0,-26.90495l8.99108,0zm81.1794,4.30639c-1.15475,0 -1.62041,0.25854 -1.62041,1.26686l0,15.75468c0,0.99657 0.46566,1.27627 1.62041,1.27627c1.16416,0 1.58985,-0.2797 1.58985,-1.27627l0,-15.75468c0,-1.00832 -0.42569,-1.26686 -1.58985,-1.26686zm-101.51693,0c-1.17357,0 -1.62042,0.25854 -1.62042,1.26686l0,15.75468c0,0.99657 0.44685,1.27627 1.62042,1.27627c1.14299,0 1.58043,-0.2797 1.58043,-1.27627l0,-15.75468c0,-1.00832 -0.43744,-1.26686 -1.58043,-1.26686zm82.19116,0.30179l-1.62983,0l0,17.44932l1.62983,0c1.35466,0 1.63688,-0.58525 1.63688,-2.59014l0,-12.2526c0,-2.01428 -0.28222,-2.60658 -1.63688,-2.60658zm-39.79737,-0.88375l-0.06585,0l-1.45814,12.09042l2.96097,0l-1.43698,-12.09042zm19.85612,0.88375l-1.89323,0l0,8.37915l1.23236,0c2.19662,0 2.54939,-0.58525 2.54939,-2.32689l0,-4.05913c0,-1.36558 -0.55503,-1.99313 -1.88852,-1.99313zm38.96152,-37.61052c5.16229,0 7.9892,1.17049 7.9892,5.55868l0,16.41749c0,4.37173 -2.82691,5.52813 -7.9892,5.52813c-5.16935,0 -7.9892,-1.1564 -7.9892,-5.52813l0,-16.41749c0,-4.38819 2.81985,-5.55868 7.9892,-5.55868zm-34.73644,0c5.14817,0 7.96333,1.17049 7.96333,5.55868l0,16.41749c0,4.37173 -2.81516,5.52813 -7.96333,5.52813c-5.1717,0 -8.00331,-1.1564 -8.00331,-5.52813l0,-16.41749c0,-4.38819 2.83161,-5.55868 8.00331,-5.55868zm54.23648,0c4.86831,0 7.9845,0.82969 7.9845,6.36956l0,2.6536l-5.92899,0l0,-2.84633c0,-1.20105 -0.46096,-1.54891 -2.02023,-1.54891c-1.18533,0 -1.63688,0.34786 -1.63688,1.66173l0,15.60661c0,0.66046 0.45155,1.00362 1.67686,1.00362c1.51929,0 1.98025,-0.34316 1.98025,-0.8908l0,-4.23306l-1.91204,0l0,-5.05335l7.84103,0l0,8.64005c0,5.21082 -2.05786,6.14158 -7.9845,6.14158c-5.16934,0 -7.98214,-1.1564 -7.98214,-5.52813l0,-16.41749c0,-4.38819 2.8128,-5.55868 7.98214,-5.55868zm-96.14698,-0.00259c5.41159,0 7.04847,1.52071 7.04847,4.63263l0,4.91232l-5.96192,0l0,-3.53969c0,-0.82029 -0.55033,-1.1517 -1.56162,-1.1517c-1.07714,0 -1.64393,0.33141 -1.64393,1.1517l0,15.53139c0,0.82029 0.56679,1.13994 1.62512,1.13994c1.0301,0 1.58043,-0.31965 1.58043,-1.13994l0,-4.25421l5.96192,0l0,4.00037c0,4.75015 -1.82973,6.22149 -7.04847,6.22149l-2.29539,0c-4.57198,0 -6.19945,-2.25873 -6.19945,-5.74436l0,-15.19999c0,-4.30357 1.62747,-6.55995 6.19945,-6.55995l2.29539,0zm-26.81826,0.30884l0,4.83946l-4.31328,0l0,22.06314l-6.16417,0l0,-22.06314l-4.31798,0l0,-4.83946l14.79543,0zm141.3564,0.00188l0,26.8979l-6.17123,0l0,-26.8979l6.17123,0zm-94.67802,-0.00047l4.5461,20.97256l0.08232,-0.08226l-0.45861,-20.8903l5.73849,0l0,26.8979l-9.00755,0l-4.51318,-20.94905l-0.04704,0l0.37159,20.94905l-5.68204,0l0,-26.8979l8.96992,0zm-72.18244,-0.00047l0,4.84181l-5.70556,0l0,5.89479l5.27517,0l0,4.62557l-5.27517,0l0,6.71743l6.13359,0l0,4.8183l-12.2766,0l0,-26.8979l11.84857,0zm184.0898,0l4.06163,26.8979l-6.27236,0l-0.80903,-6.45888l-3.99813,0l-0.79257,6.45888l-6.27235,0l4.05692,-26.8979l10.02589,0zm-71.85906,0l0,22.0796l5.99484,0l0,4.8183l-12.17312,0l0,-26.8979l6.17828,0zm-72.15515,0l0,4.84181l-5.70557,0l0,5.89479l5.27518,0l0,4.62557l-5.27518,0l0,6.71743l6.1336,0l0,4.8183l-12.2766,0l0,-26.8979l11.84857,0zm54.15723,4.32073c-1.15711,0 -1.62042,0.24914 -1.62042,1.23631l0,15.77819c0,0.99656 0.46331,1.25746 1.62042,1.25746c1.13358,0 1.58043,-0.2609 1.58043,-1.25746l0,-15.77819c0,-0.98717 -0.44685,-1.23631 -1.58043,-1.23631zm34.73644,0c-1.13829,0 -1.58749,0.24914 -1.58749,1.23631l0,15.77819c0,0.99656 0.4492,1.25746 1.58749,1.25746c1.16416,0 1.59455,-0.2609 1.59455,-1.25746l0,-15.77819c0,-0.98717 -0.43039,-1.23631 -1.59455,-1.23631zm50.1417,-0.5977l-0.08232,0l-1.44873,12.09512l2.97037,0l-1.43932,-12.09512zm-163.12339,-36.71033c5.38336,0 7.0226,1.4737 7.0226,4.60678l0,4.88646l-5.95721,0l0,-3.52089c0,-0.80853 -0.55504,-1.15639 -1.55457,-1.15639c-1.07479,0 -1.63923,0.34786 -1.63923,1.15639l0,15.52435c0,0.81324 0.56444,1.15404 1.60395,1.15404c1.03481,0 1.58985,-0.3408 1.58985,-1.15404l0,-4.2166l5.95721,0l0,3.97216c0,4.72899 -1.82033,6.23089 -7.0226,6.23089l-2.31186,0c-4.57668,0 -6.20885,-2.26813 -6.20885,-5.76316l0,-15.19529c0,-4.29652 1.63217,-6.5247 6.20885,-6.5247l2.31186,0zm-19.8507,-0.00094c5.33632,0 7.12372,1.4737 7.12372,5.22963l0,3.23884l-5.49625,0l0,-1.30917c0,-2.36214 -0.17874,-2.55017 -1.74506,-2.55017c-1.57619,0 -1.74336,0.61497 -1.75389,1.7718l-0.00059,1.93947c0,1.69463 0.45861,2.00488 2.28129,2.44911c6.57574,1.69698 7.30246,2.18821 7.30246,9.10307c0,6.44948 -2.37536,7.60822 -7.60585,7.60822c-6.69569,0 -7.92805,-1.54421 -7.92805,-6.89605l0,-2.24698l5.73143,0l0,1.93203c0,1.85916 0,2.60188 1.83209,2.60188c1.35936,0 1.81797,-0.43952 1.81797,-1.58887l0,-2.88863c0,-1.87796 -0.40452,-1.97198 -3.65006,-2.76876c-4.80246,-1.12819 -5.73143,-2.29634 -5.73143,-7.09114l0,-1.65232c0,-6.25675 1.94027,-6.88196 7.82222,-6.88196zm52.97778,0.28699l0,4.82771l-5.69851,0l0,5.91123l5.28223,0l0,4.59972l-5.28223,0l0,6.73153l6.13595,0l0,4.83241l-12.30012,0l0,-26.9026l11.86268,0zm56.36043,0l4.03341,26.9026l-6.2606,0l-0.77846,-6.46828l-4.00753,0l-0.80904,6.46828l-6.27706,0l4.03811,-26.9026l10.06117,0zm-16.21617,0l0,4.68198l-6.89324,17.38821l6.89324,0l0,4.83241l-13.53954,0l0,-4.61852l6.92617,-17.45637l-6.22532,0l0,-4.82771l12.83869,0zm-26.7884,0.0007l4.52965,20.96316l0.08466,-0.08226l-0.44685,-20.8809l5.70557,0l0,26.9026l-8.99109,0l-4.48966,-20.9561l-0.07055,0l0.36923,20.9561l-5.67499,0l0,-26.9026l8.98403,0zm-29.68139,-0.00188l0,26.9026l-6.16182,0l0,-26.9026l6.16182,0zm67.71182,3.7289l-0.07526,0l-1.43932,12.10923l2.94685,0l-1.43227,-12.10923zm-34.65695,-36.72137c5.167,0 7.9845,1.1517 7.9845,5.51873l0,16.43865c0,4.38113 -2.8175,5.55163 -7.9845,5.55163c-5.16699,0 -7.9986,-1.1705 -7.9986,-5.55163l0,-16.43865c0,-4.36703 2.83161,-5.51873 7.9986,-5.51873zm-68.68736,0.2884l4.52258,20.9514l0.07291,-0.06581l-0.43039,-20.88559l5.71262,0l0,26.9026l-8.98167,0l-4.50613,-20.95376l-0.06115,0l0.35748,20.95376l-5.69145,0l0,-26.9026l9.0052,0zm89.60604,0l4.53199,20.9514l0.09643,-0.06581l-0.46096,-20.88559l5.72203,0l0,26.9026l-8.98874,0l-4.48966,-20.95376l-0.06585,0l0.37394,20.95376l-5.71497,0l0,-26.9026l8.99579,0zm60.9691,-0.00071l0,4.83476l-5.67264,0l0,5.89949l5.28694,0l0,4.60207l-5.28694,0l0,6.72682l6.1289,0l0,4.83711l-12.30248,0l0,-26.90025l11.84622,0zm-20.81402,0l0,22.06314l5.97838,0l0,4.83711l-12.1402,0l0,-26.90025l6.16182,0zm-102.92263,0l4.04046,26.90025l-6.25354,0l-0.81139,-6.46593l-3.99813,0l-0.78081,6.46593l-6.28647,0l4.04752,-26.90025l10.04236,0zm19.81354,0l0,4.67258l-6.88383,17.39056l6.88383,0l0,4.83711l-13.56306,0l0,-4.61617l6.93323,-17.44932l-6.19005,0l0,-4.83476l12.81988,0zm69.9195,0l4.04752,26.90025l-6.27471,0l-0.79022,-6.46593l-4.00989,0l-0.77846,6.46593l-6.29117,0l4.04987,-26.90025l10.04706,0zm-59.81952,-0.00329l0,26.9026l-6.16417,0l0,-26.9026l6.16417,0zm11.93535,4.32237c-1.16651,0 -1.59219,0.27265 -1.59219,1.25982l0,15.75468c0,1.00832 0.42568,1.25746 1.59219,1.25746c1.143,0 1.61101,-0.24914 1.61101,-1.25746l0,-15.75468c0,-0.98717 -0.46801,-1.25982 -1.61101,-1.25982zm-46.83948,-0.59606l-0.09642,0l-1.43698,12.11393l2.9986,0l-1.4652,-12.11393zm89.74481,0l-0.09173,0l-1.44167,12.11393l2.97742,0l-1.44402,-12.11393zm-64.40679,-36.70256c5.35749,0 7.14489,1.4831 7.14489,5.24373l0,3.22709l-5.51506,0l0,-1.29507c0,-2.35744 -0.17639,-2.55723 -1.73801,-2.55723c-1.57167,0 -1.73214,0.59977 -1.74216,1.7805l-0.00056,1.93312c0,1.70639 0.44685,2.00724 2.25777,2.45616c6.58515,1.69699 7.33068,2.17177 7.33068,9.09368c0,6.45418 -2.38006,7.61527 -7.61996,7.61527c-6.68393,0 -7.9304,-1.56771 -7.9304,-6.91486l0,-2.23522l5.72673,0l0.0006,2.32246c0.00806,1.5808 0.12494,2.2185 1.81972,2.2185c1.38994,0 1.83209,-0.44893 1.83209,-1.59827l0,-2.89333c0,-1.84976 -0.39982,-1.96493 -3.65241,-2.75466c-4.76953,-1.147 -5.72673,-2.28929 -5.72673,-7.09349l0,-1.61942c0,-6.2967 1.93556,-6.92896 7.81281,-6.92896zm34.76655,0.00188c5.16699,0 7.98684,1.15404 7.98684,5.53518l0,16.42219c0,4.37879 -2.81985,5.53753 -7.98684,5.53753c-5.167,0 -8.01507,-1.15874 -8.01507,-5.53753l0,-16.42219c0,-4.38114 2.84807,-5.53518 8.01507,-5.53518zm-55.39007,0.30179l0,20.66701c0,1.04122 0.40452,1.68993 1.62277,1.68993c1.22296,0 1.63923,-0.64871 1.63923,-1.68993l0,-20.66701l6.17358,0l0,20.47193c0,5.98645 -2.86219,6.71977 -7.81281,6.71977c-4.93651,0 -7.79164,-0.73332 -7.79164,-6.71977l0,-20.47193l6.16887,0zm43.80043,0l0,4.81831l-5.69615,0l0,5.91124l5.28693,0l0,4.60677l-5.28693,0l0,6.73387l6.14065,0l0,4.82771l-12.31188,0l0,-26.8979l11.86738,0zm-69.67326,0.00165l3.00801,21.16764l0.0682,0l3.01271,-21.16764l9.70134,0l0,26.89555l-5.62325,0l0.23753,-22.64839l-0.08231,0l-3.98402,22.64839l-7.04376,0l-3.43368,-22.74006l-0.07526,0l0,22.74006l-5.47979,0l0,-26.89555l9.69428,0zm81.2629,4.31273c-1.15241,0 -1.59926,0.24914 -1.59926,1.25981l0,15.73824c0,1.01302 0.44685,1.27156 1.59926,1.27156c1.13593,0 1.59925,-0.25854 1.59925,-1.27156l0,-15.73824c0,-1.01067 -0.46332,-1.25981 -1.59925,-1.25981z"/>
  </g>
 </g>
</svg>